<svg xmlns="http://www.w3.org/2000/svg" width="36" height="36" viewBox="0 0 36 36"><defs><style>.a{fill:#2196f3;}</style></defs><g transform="translate(0 0)"><path class="a" d="M35.693,17.256a1.055,1.055,0,0,0-.748-.311,2.33,2.33,0,0,1-2.072-1.259,1.055,1.055,0,0,0-1.613-.321,2.335,2.335,0,0,1-3.829-1.585,1.055,1.055,0,0,0-1.367-.914,2.335,2.335,0,0,1-2.931-2.931,1.055,1.055,0,0,0-.914-1.367A2.335,2.335,0,0,1,20.634,4.74a1.055,1.055,0,0,0-.321-1.613A2.335,2.335,0,0,1,19.055,1.1V1.045A1.055,1.055,0,0,0,18,0a11.34,11.34,0,0,0-6.577,2.121,11.258,11.258,0,0,0-9.3,9.3,11.258,11.258,0,0,0,0,13.154,11.258,11.258,0,0,0,9.3,9.3,11.257,11.257,0,0,0,13.154,0,11.258,11.258,0,0,0,9.3-9.3A11.335,11.335,0,0,0,36,18.005,1.055,1.055,0,0,0,35.693,17.256Zm-3.654,6.258a1.054,1.054,0,0,0-.213.513,9.138,9.138,0,0,1-7.8,7.8,1.055,1.055,0,0,0-.514.213,9.136,9.136,0,0,1-11.028,0,1.055,1.055,0,0,0-.514-.213,9.138,9.138,0,0,1-7.8-7.8,1.055,1.055,0,0,0-.213-.513,9.138,9.138,0,0,1,0-11.029,1.054,1.054,0,0,0,.213-.513,9.138,9.138,0,0,1,7.8-7.8,1.055,1.055,0,0,0,.514-.213,9.108,9.108,0,0,1,4.6-1.8A4.443,4.443,0,0,0,18.4,4.345a4.447,4.447,0,0,0,2.518,6.081,4.446,4.446,0,0,0,4.654,4.654A4.446,4.446,0,0,0,31.655,17.6a4.424,4.424,0,0,0,2.189,1.319A9.123,9.123,0,0,1,32.039,23.514Z"/><path d="M113.905,144.909l-1.13,1.13a1.055,1.055,0,0,0,1.492,1.492l1.13-1.13a1.055,1.055,0,1,0-1.491-1.492Z" transform="translate(-104.559 -134.433)"/><path d="M370.972,305.575l-1.13,1.13a1.055,1.055,0,0,0,1.492,1.492l1.13-1.13a1.055,1.055,0,1,0-1.492-1.492Z" transform="translate(-343.551 -283.802)"/><path d="M274.573,377.875l-1.13,1.13a1.055,1.055,0,0,0,1.492,1.492l1.13-1.13a1.055,1.055,0,0,0-1.492-1.492Z" transform="translate(-253.93 -351.019)"/><path d="M178.172,257.376l-1.13,1.13A1.055,1.055,0,0,0,178.534,260l1.13-1.13a1.055,1.055,0,0,0-1.492-1.492Z" transform="translate(-164.307 -238.992)"/><path d="M178.534,369.843a1.055,1.055,0,1,0-1.492,1.492l1.13,1.13a1.055,1.055,0,0,0,1.492-1.492Z" transform="translate(-164.307 -343.551)"/><path d="M82.133,273.442a1.055,1.055,0,1,0-1.492,1.492l1.13,1.13a1.055,1.055,0,0,0,1.492-1.492Z" transform="translate(-74.684 -253.928)"/><path d="M274.934,273.443a1.055,1.055,0,0,0-1.492,1.492l1.13,1.13a1.055,1.055,0,0,0,1.492-1.492Z" transform="translate(-253.929 -253.929)"/><path d="M210.667,160.976a1.055,1.055,0,0,0-1.492,1.492l1.13,1.13a1.055,1.055,0,0,0,1.492-1.492Z" transform="translate(-194.181 -149.37)"/></g></svg>